trial_3_IK.mot
nRows=4
nColumns=42

name trial_3_IK.mot
datacolumns 42
datarows 4
range 5.0800000000 5.1100000000
endheader
time	pelvis_tilt	pelvis_list	pelvis_rotation	pelvis_tx	pelvis_ty	pelvis_tz	hip_flexion_r	hip_adduction_r	hip_rotation_r	knee_angle_r	knee_vv_r	knee_rot_r	ankle_angle_r	subtalar_angle_r	mtp_angle_r	hip_flexion_l	hip_adduction_l	hip_rotation_l	knee_angle_l	knee_vv_l	knee_rot_l	ankle_angle_l	subtalar_angle_l	mtp_angle_l	lumbar_extension	lumbar_bending	lumbar_rotation	arm_flex_r	arm_add_r	arm_rot_r	elbow_flex_r	pro_sup_r	wrist_flex_r	wrist_dev_r	arm_flex_l	arm_add_l	arm_rot_l	elbow_flex_l	pro_sup_l	wrist_flex_l	wrist_dev_l
        5.0800000000	        9.9832632000	        5.0975807800	       -3.6553335200	        0.1161421200	        0.9148999700	       -0.0528048200	       12.6281516000	       -7.0928888900	        1.6729167300	      -62.4018902600	        0.0000000000	        0.0000000000	        3.0673078300	        0.0000000000	        0.0000000000	       -3.3386836700	       10.4178055800	       -4.0091187400	       -8.9251429200	        0.0000000000	        0.0000000000	        1.2818309600	        0.0000000000	        0.0000000000	      -24.8787865800	       -5.1977436100	       -2.2270326800	        2.7167084100	      -10.1488771400	       38.1275230900	        5.5726802500	       86.5166270600	        0.0000000000	        0.0000000000	       18.9293177100	      -19.0294755700	       30.4357508900	       19.5857595500	       85.9436692700	        0.0000000000	        0.0000000000	
        5.0900000000	        9.7397529100	        4.8454744700	       -3.4474703800	        0.1148494400	        0.9153819500	       -0.0539196500	       13.6246539000	       -6.9229236900	        0.9664758900	      -60.9294827800	        0.0000000000	        0.0000000000	        4.2936322600	        0.0000000000	        0.0000000000	       -3.7968417200	       10.2154903900	       -3.8243905200	       -8.5557915900	        0.0000000000	        0.0000000000	        1.4800534800	        0.0000000000	        0.0000000000	      -24.6906483500	       -4.7209828900	       -2.5483492600	        1.8536240600	      -10.0114245600	       38.3586281800	        5.2318226300	       86.5166270600	        0.0000000000	        0.0000000000	       19.2857361500	      -19.4173597400	       29.2163555500	       20.7552057600	       85.9436692700	        0.0000000000	        0.0000000000	
        5.1000000000	        9.5400081100	        4.5919965200	       -3.2530982400	        0.1136382800	        0.9158443900	       -0.0549343800	       14.4482663800	       -6.7579413800	        0.2371415000	      -59.1535138100	        0.0000000000	        0.0000000000	        5.2659995200	        0.0000000000	        0.0000000000	       -4.3204891300	       10.0005267400	       -3.7087515300	       -8.1600940100	        0.0000000000	        0.0000000000	        1.6753818300	        0.0000000000	        0.0000000000	      -24.5358091000	       -4.2586641500	       -2.8516310000	        0.9993452400	       -9.8896094500	       38.4557793000	        4.9152189200	       86.5166270600	        0.0000000000	        0.0000000000	       19.5968593200	      -19.8011691000	       28.0049127800	       21.9668153700	       85.9436692700	        0.0000000000	        0.0000000000	
        5.1100000000	        9.3918291600	        4.3492353900	       -3.0700481000	        0.1124974800	        0.9162692300	       -0.0558326200	       15.0862216400	       -6.6007394100	       -0.4901441200	      -57.0840670200	        0.0000000000	        0.0000000000	        5.9917367300	        0.0000000000	        0.0000000000	       -4.9195259300	        9.7857558200	       -3.6638283700	       -7.7372507200	        0.0000000000	        0.0000000000	        1.8698347300	        0.0000000000	        0.0000000000	      -24.4247569400	       -3.8262275500	       -3.1440842900	        0.1579487100	       -9.7781651800	       38.4273514900	        4.6204628800	       86.5166270600	        0.0000000000	        0.0000000000	       19.8633790100	      -20.1868508400	       26.8232808000	       23.2114565300	       85.9436692700	        0.0000000000	        0.0000000000	
